<svg height="512" viewBox="0 0 58 58" width="512" xmlns="http://www.w3.org/2000/svg"><g id="030---Give-Blood" fill="none"><path id="Shape" d="m56.68 44.57-18.74 11.41c-1.0968305.667384-2.3560847 1.020252-3.64 1.02l-28.3.0000001 3-22.0000001h2.76c2.0501311.0033923 4.0371819.7092718 5.63 2 1.5890253 1.2905773 3.5729095 1.9965859 5.62 2h5.16c3.754 0 6.39 4.343 3.78 7 2.736 0 3.117.068 3.93-.21l18.51-6.17c1.120338-.3678364 2.3505552.0181141 3.06.96v.01c.4649441.6171961.6465512 1.4025179.4997758 2.1611752s-.608183 1.4195768-1.2697758 1.8188248z" fill="#fdd7ad"/><path id="Shape" d="m58 22.98c.0000001 4.6444527-2.4777859 8.9361041-6.4999999 11.2583305-4.0222141 2.3222264-8.9777861 2.3222264-13.0000002 0-4.022214-2.3222264-6.5-6.6138778-6.4999999-11.2583305 0-8.46 10.1-20.11 12.5-22.76.1292076-.13884818.3103334-.21771622.5-.21771622s.3707924.07886804.5.21771622c1.586 1.759 3.213 3.728 4.67 5.68 1.6674597 2.25836695 3.2065578 4.6087466 4.61 7.04 1.85 3.38 3.22 6.92 3.22 10.04z" fill="#c03a2b"/><path id="Shape" d="m56.555 20.427c.0000001 4.1282039-2.2023705 7.9428217-5.7774999 10.0069237-3.5751295 2.064102-7.9798707 2.064102-11.5550002 0-3.5751294-2.064102-5.7775-5.8787198-5.7774999-10.0069237 0-7.52 8.977-17.876 11.111-20.231.1146591-.12343527.2755275-.19356819.444-.19356819s.3293409.07013292.444.19356819c1.41 1.563 2.856 3.313 4.156 5.049 1.4832803 2.00688009 2.8521232 4.09586793 4.1 6.257 1.638 3.005 2.855 6.151 2.855 8.925z" fill="#e64c3c"/><path id="Shape" d="m31 7.66c0 2.4852814-2.0147186 4.5-4.5 4.5s-4.5-2.0147186-4.5-4.5c0-2.82 3.5-6.7 4.326-7.585.045163-.04796232.1081207-.07515556.174-.07515556s.128837.02719324.174.07515556c.826.88 4.326 4.765 4.326 7.585z" fill="#c03a2b"/><path id="Shape" d="m29.875 5.745c-.0626228 1.8187574-1.5551648 3.26079329-3.375 3.26079329s-3.3123772-1.44203589-3.375-3.26079329c0-2.115 2.623-5.029 3.244-5.689.0341583-.03582654.0814992-.05610004.131-.05610004s.0968417.0202735.131.05610004c.621.66 3.244 3.574 3.244 5.689z" fill="#e64c3c"/><path id="Shape" d="m25 26.021c0 2.209139-1.790861 4-4 4s-4-1.790861-4-4c0-2.584 3.109-6.145 3.845-6.952.0396232-.043806.0959325-.0688001.155-.0688001s.1153768.0249941.155.0688001c.736.807 3.845 4.368 3.845 6.952z" fill="#c03a2b"/><path id="Shape" d="m23.909 24.106c0 1.6065963-1.3024037 2.9089999-2.909 2.9089999s-2.909-1.3024036-2.909-2.9089999c0-1.879 2.261-4.469 2.8-5.056.0288263-.0320414.0699-.0503388.113-.0503388s.0841737.0182974.113.0503388c.531.587 2.792 3.177 2.792 5.056z" fill="#e64c3c"/><path id="Shape" d="m36 23.917c-.5522847 0-1-.4477153-1-1 0-5.8 6.455-14.208 9.23-17.555.227004-.27818166.5857205-.41331215.9398437-.35404431.3541231.05926785.6492913.30383582.773346.64077246s.0579522.71451873-.1731897.98927185c-5.41 6.525-8.77 12.762-8.77 16.279 0 .5522847-.4477153 1-1 1z" fill="#fb7b76"/><path id="Shape" d="m38.25 29.784c-.2848908.0000137-.5562627-.1214852-.746-.334-.3912635-.4379436-.7432842-.9094239-1.052-1.409-.257455-.4669732-.1032064-1.0538109.3505942-1.3338325.4538006-.2800217 1.0474899-.1547058 1.3494058.2848325.2487555.3997109.5325382.7765262.848 1.126.2630242.2945931.3280334.7163919.1659156 1.0765094-.1621177.3601176-.5209926.5910923-.9159156.5894906z" fill="#fb7b76"/><rect id="Rectangle-path" fill="#26b99a" height="25" rx="2" width="9" y="33"/><path id="Shape" d="m54.78 12.94c-1.7085824.2289872-3.4329308-.2898621-4.7314523-1.4236745-1.2985216-1.1338124-2.0451021-2.77247025-2.0485477-4.4963255.0352475-1.03624598.2837533-2.05409832.73-2.99.46.58.94 1.2 1.44 1.87 1.6674597 2.25836695 3.2065578 4.6087466 4.61 7.04z" fill="#c03a2b"/><path id="Shape" d="m58 7.021c0 2.209139-1.790861 4-4 4s-4-1.790861-4-4c0-2.584 3.109-6.145 3.845-6.952.0396232-.04380601.0959325-.06880014.155-.06880014s.1153768.02499413.155.06880014c.736.807 3.845 4.368 3.845 6.952z" fill="#e64c3c"/><path id="Shape" d="m32.95 44c-.1125911.7559122-.4628249 1.4563798-1 2h-6.23c-1.5797578-.0009418-3.1245213.4652706-4.44 1.34l-.72.49c-.4583963.3092795-1.0807205.1883963-1.39-.27s-.1883963-1.0807205.27-1.39l.73-.49c1.6440609-1.0946059 3.5748804-1.6790702 5.55-1.68z" fill="#f9c795"/></g></svg>