<svg id="Layer_1" enable-background="new 0 0 512 512" height="512" viewBox="0 0 512 512" width="512" xmlns="http://www.w3.org/2000/svg"><g><path d="m196.71 215.015c0 54.24-44.12 98.36-98.35 98.36-2.87 0-5.72-.12-8.53-.38-50.26-4.32-89.83-46.61-89.83-97.98 0-29.12 15.97-66.49 47.48-111.09 13.35-18.89 26.81-35.15 35.88-45.6 6.7-7.72 11-12.27 11.1-12.37 1.02-1.07 2.42-1.68 3.9-1.68 1.47 0 2.88.61 3.89 1.68.23.24 23.78 25.13 46.99 57.97 31.5 44.6 47.47 81.97 47.47 111.09z" fill="#ff6e6e"/><path d="m196.71 215.015c0 54.24-44.12 98.36-98.35 98.36-2.87 0-5.72-.12-8.53-.38 5.75-37.43 27.75-85.04 65.06-137.84.83-1.18 1.66-2.34 2.49-3.5-7.83-20.21-20.57-42.84-38.14-67.73-13.35-18.89-26.81-35.15-35.88-45.6 6.7-7.72 11-12.27 11.1-12.37 1.02-1.07 2.42-1.68 3.9-1.68 1.47 0 2.88.61 3.89 1.68.23.24 23.78 25.13 46.99 57.97 31.5 44.6 47.47 81.97 47.47 111.09z" fill="#f44e92"/><path d="m512 215.015c0 54.24-44.12 98.36-98.36 98.36-5.1 0-10.11-.39-15-1.15-47.14-7.23-83.35-48.07-83.35-97.21 0-29.12 15.97-66.49 47.47-111.09 13.35-18.89 26.81-35.15 35.89-45.6 6.7-7.72 11.01-12.27 11.1-12.37 1.01-1.07 2.42-1.68 3.89-1.68 1.48 0 2.88.61 3.9 1.68.23.24 23.78 25.13 46.98 57.97 31.51 44.6 47.48 81.97 47.48 111.09z" fill="#ff6e6e"/><path d="m512 215.015c0 54.24-44.12 98.36-98.36 98.36-5.1 0-10.11-.39-15-1.15 47.15-7.23 83.36-48.07 83.36-97.21 0-29.12-15.97-66.49-47.48-111.09-13.35-18.89-26.81-35.15-35.87-45.6 6.7-7.72 11.01-12.27 11.1-12.37 1.01-1.07 2.42-1.68 3.89-1.68 1.48 0 2.88.61 3.9 1.68.23.24 23.78 25.13 46.98 57.97 31.51 44.6 47.48 81.97 47.48 111.09z" fill="#f44e92"/><path d="m393.35 330.335c0 75.76-61.63 137.39-137.39 137.39-5.92 0-11.75-.38-17.48-1.11h-.04c-67.51-8.63-119.87-66.45-119.87-136.28 0-40.68 22.31-92.89 66.32-155.18 20.42-28.91 41.03-53.41 53.57-67.66 7.36-8.37 11.94-13.2 12.06-13.33 1.42-1.49 3.38-2.34 5.44-2.34s4.02.85 5.44 2.34c.33.34 33.22 35.1 65.63 80.99 44.01 62.29 66.32 114.5 66.32 155.18z" fill="#ff6e6e"/><path d="m327.03 175.155c44.01 62.29 66.32 114.5 66.32 155.18 0 75.76-61.63 137.39-137.39 137.39-5.92 0-11.75-.38-17.48-1.11 67.51-8.63 119.87-66.45 119.87-136.28 0-40.68-22.31-92.89-66.32-155.18-20.42-28.91-41.03-53.41-53.57-67.66 7.36-8.37 11.94-13.2 12.06-13.33 1.42-1.49 3.38-2.34 5.44-2.34s4.02.85 5.44 2.34c.33.34 33.22 35.1 65.63 80.99z" fill="#f44e92"/><path d="m312.317 315.905h-33.922v-33.662c0-2.468-2-4.468-4.468-4.468h-36.18c-2.468 0-4.468 2-4.468 4.468v33.662h-33.675c-2.468 0-4.468 2-4.468 4.468v36.019c0 2.468 2 4.468 4.468 4.468h33.675v33.662c0 2.468 2 4.468 4.468 4.468h36.18c2.468 0 4.468-2 4.468-4.468v-33.662h33.922c2.468 0 4.468-2 4.468-4.468v-36.019c0-2.468-2.001-4.468-4.468-4.468z" fill="#e9f5ff"/></g></svg>