<svg id="Capa_1" enable-background="new 0 0 511.979 511.979" height="512" viewBox="0 0 511.979 511.979" width="512" xmlns="http://www.w3.org/2000/svg"><g><path d="m223.207 408.02h-66.333v38.119c0 6.534 5.297 11.831 11.831 11.831h42.671c6.534 0 11.831-5.297 11.831-11.831z" fill="#a7e6ef"/><path d="m201.575 446.138v-38.118h-44.7v38.119c0 6.534 5.297 11.831 11.831 11.831h42.671c.343 0 .691-.018 1.026-.047-6.058-.516-10.828-5.593-10.828-11.785z" fill="#6dd8e6"/><g id="XMLID_66_"><g><path d="m326.666 83.378v210.72c0 48.117-36.489 87.701-83.297 92.617-1.841.193-3.233 1.755-3.233 3.607v20.926c0 8.71-7.06 15.77-15.77 15.77h-68.65c-8.71 0-15.77-7.06-15.77-15.77v-20.926c0-1.852-1.392-3.413-3.233-3.607-46.808-4.916-83.297-44.499-83.297-92.617v-210.72c0-20.54 16.65-37.19 37.2-37.19h7.51c2.74 0 5.09-1.92 5.65-4.59l3.64-17.53c2-9.65 10.5-16.57 20.36-16.57h124.53c9.86 0 18.36 6.92 20.36 16.57l3.64 17.53c.56 2.67 2.92 4.59 5.65 4.59h7.52c20.539 0 37.19 16.651 37.19 37.19z" fill="#f9f7f8"/></g></g><path d="m296.664 203.711v-120.333c0-3.966-3.227-7.193-7.193-7.193h-198.86c-3.966 0-7.193 3.227-7.193 7.193v120.333z" fill="#efedef"/><path d="m194.276 411.248v-20.926c0-1.852-1.392-3.413-3.233-3.607-46.808-4.916-83.297-44.5-83.297-92.617v-210.72c0-20.54 16.65-37.19 37.2-37.19h7.51c2.74 0 5.09-1.92 5.65-4.59l3.64-17.53c2-9.65 10.5-16.57 20.36-16.57h-54.331c-9.86 0-18.36 6.92-20.36 16.57l-3.64 17.53c-.56 2.67-2.91 4.59-5.65 4.59h-7.51c-20.55 0-37.2 16.65-37.2 37.19v210.72c0 48.117 36.489 87.701 83.297 92.617 1.841.193 3.233 1.755 3.233 3.607v20.926c0 8.71 7.061 15.77 15.77 15.77h54.331c-8.709 0-15.77-7.06-15.77-15.77z" fill="#efedef"/><path d="m108.441 76.185h-17.83c-3.966 0-7.193 3.227-7.193 7.193v120.333h24.328v-120.333c0-2.461.239-4.865.695-7.193z" fill="#e5e1e5"/><g id="XMLID_1_"><g><path d="m296.666 187.258v106.84c0 34.82-28.33 63.14-63.14 63.14h-23.39v69.78h-40.19v-69.78h-23.39c-34.81 0-63.14-28.32-63.14-63.14v-106.84h183.25z" fill="#fd828a"/></g></g><g fill="#fd6773"><path d="m83.416 187.258v106.84c0 29.315 20.048 54.015 47.17 61.094-14.236-16.355-22.839-37.706-22.839-61.094v-106.84z"/><path d="m194.276 411.248v-20.926c0-1.852-1.392-3.413-3.233-3.607-7.318-.769-14.384-2.385-21.097-4.748v45.051h40.101c-8.71 0-15.771-7.06-15.771-15.77z"/></g><g id="XMLID_65_"><g><path d="m458.566 396.018c0 26.26-21.29 47.55-47.55 47.55s-47.55-21.29-47.55-47.55c0-19.91 27.35-56.69 40.57-73.29 3.57-4.5 10.39-4.5 13.96 0 13.22 16.6 40.57 53.38 40.57 73.29z" fill="#fd828a"/></g></g><path d="m383.685 396.018c0-18.449 23.476-51.371 37.44-69.313-1.106-1.421-2.159-2.759-3.129-3.977-3.57-4.5-10.39-4.5-13.96 0-13.22 16.6-40.57 53.38-40.57 73.29 0 26.26 21.29 47.55 47.55 47.55 3.47 0 6.85-.371 10.109-1.077-21.402-4.636-37.44-23.683-37.44-46.473z" fill="#fd6773"/><path d="m119.397 276.136h141.287c3.302 0 5.979-3.308 5.979-7.388v-121.745c0-4.08-2.677-7.388-5.979-7.388h-141.287c-3.302 0-5.979 3.308-5.979 7.388v121.745c0 4.08 2.677 7.388 5.979 7.388z" fill="#f9f7f8"/></g><g><path d="m238.871 28.965h-97.661c-4.142 0-7.5 3.358-7.5 7.5s3.358 7.5 7.5 7.5h97.661c4.142 0 7.5-3.358 7.5-7.5s-3.358-7.5-7.5-7.5z"/><path d="m423.867 318.056c-1.479-1.858-3.311-3.327-5.353-4.377v-258.142c0-30.623-24.914-55.537-55.537-55.537-26.352 0-48.459 18.454-54.119 43.114-5.868-2.837-12.445-4.429-19.388-4.429h-6.105l-3.354-16.147c-2.714-13.059-14.365-22.538-27.702-22.538h-124.536c-13.338 0-24.989 9.479-27.702 22.539l-3.354 16.146h-6.105c-24.644 0-44.693 20.049-44.693 44.693v210.723c0 25.636 9.644 50.055 27.156 68.76 15.817 16.895 36.689 27.707 59.37 30.89v17.497c0 10.634 7.172 19.618 16.931 22.386v12.504c0 10.659 8.672 19.331 19.331 19.331h13.997c1.975 25.975 23.727 46.51 50.199 46.51 27.77 0 50.361-22.592 50.361-50.361v-80.012c8.719-4.965 16.73-11.254 23.744-18.745 17.512-18.705 27.156-43.125 27.156-68.76v-210.723c0-11.57-4.42-22.127-11.659-30.072 1.162-21.318 18.869-38.306 40.472-38.306 22.353 0 40.537 18.185 40.537 40.537v258.142c-2.042 1.05-3.874 2.519-5.353 4.377-34.873 43.826-42.193 66.588-42.193 77.967 0 30.353 24.693 55.046 55.046 55.046s55.047-24.694 55.047-55.046c0-11.378-7.32-34.141-42.194-77.967zm-259.492 128.083v-11.619h51.333v11.619c0 2.388-1.943 4.331-4.331 4.331h-42.671c-2.388-.001-4.331-1.944-4.331-4.331zm103.888 15.48c0 19.498-15.863 35.361-35.361 35.361-18.197 0-33.222-13.817-35.148-31.51h13.622c10.659 0 19.331-8.672 19.331-19.331v-12.505c9.759-2.768 16.93-11.753 16.93-22.386v-17.497c7.085-.994 13.993-2.733 20.626-5.169zm50.901-167.518c0 44.77-34.943 82.291-79.551 85.42-3.929.275-6.975 3.543-6.975 7.481v24.246c0 4.561-3.71 8.271-8.271 8.271h-1.159-5.57v-54.781h15.888c38.95 0 70.638-31.688 70.638-70.638v-210.722c0-8.102-6.592-14.693-14.693-14.693h-129.676c-4.142 0-7.5 3.358-7.5 7.5s3.358 7.5 7.5 7.5h129.369v96.076h-15v-32.758c0-8.209-6.047-14.888-13.479-14.888h-14.496c-4.142 0-7.5 3.358-7.5 7.5s3.358 7.5 7.5 7.5h12.976v121.521h-138.247v-121.521h93.308c4.142 0 7.5-3.358 7.5-7.5s-3.358-7.5-7.5-7.5h-94.829c-7.432 0-13.479 6.679-13.479 14.888v32.758h-15v-96.076h36.915c4.142 0 7.5-3.358 7.5-7.5s-3.358-7.5-7.5-7.5h-37.222c-8.102 0-14.693 6.591-14.693 14.693v210.723c0 38.95 31.688 70.638 70.638 70.638h15.888v11.923c0 4.142 3.358 7.5 7.5 7.5s7.5-3.358 7.5-7.5v-19.423c0-4.142-3.358-7.5-7.5-7.5h-23.388c-30.679 0-55.638-24.959-55.638-55.638v-99.34h15v73.987c0 8.209 6.047 14.888 13.479 14.888h141.287c7.433 0 13.479-6.679 13.479-14.888v-73.987h15v99.34c0 30.679-24.959 55.638-55.638 55.638h-23.388c-4.142 0-7.5 3.358-7.5 7.5v62.281h-25.193v-10.895c0-4.142-3.358-7.5-7.5-7.5s-7.5 3.358-7.5 7.5v10.895h-5.569-1.16c-4.561 0-8.271-3.71-8.271-8.271v-24.246c0-3.938-3.046-7.206-6.975-7.481-44.607-3.129-79.55-40.65-79.55-85.42v-210.724c0-16.373 13.32-29.693 29.693-29.693h7.519c6.252 0 11.714-4.443 12.985-10.564l3.642-17.531c1.274-6.136 6.748-10.59 13.015-10.59h124.536c6.267 0 11.741 4.454 13.016 10.589l3.642 17.532c1.272 6.121 6.732 10.563 12.984 10.563h7.52c16.373 0 29.693 13.32 29.693 29.693zm91.85 141.968c-22.081 0-40.046-17.965-40.046-40.046 0-12.337 14.554-37.992 38.932-68.627.354-.446.802-.54 1.114-.54s.761.094 1.115.54c24.378 30.635 38.932 56.29 38.932 68.627 0 22.081-17.965 40.046-40.047 40.046z"/><path d="m426.68 382.54h-8.166v-8.165c0-4.142-3.357-7.5-7.5-7.5s-7.5 3.358-7.5 7.5v8.165h-8.165c-4.143 0-7.5 3.358-7.5 7.5s3.357 7.5 7.5 7.5h8.165v8.166c0 4.142 3.357 7.5 7.5 7.5s7.5-3.358 7.5-7.5v-8.166h8.166c4.143 0 7.5-3.358 7.5-7.5s-3.357-7.5-7.5-7.5z"/><path d="m136.314 176.05c0 4.142 3.358 7.5 7.5 7.5h93.057c4.142 0 7.5-3.358 7.5-7.5s-3.358-7.5-7.5-7.5h-93.057c-4.142 0-7.5 3.358-7.5 7.5z"/><path d="m236.871 199.296h-93.057c-4.142 0-7.5 3.358-7.5 7.5s3.358 7.5 7.5 7.5h93.057c4.142 0 7.5-3.358 7.5-7.5s-3.358-7.5-7.5-7.5z"/><path d="m236.871 230.042h-93.057c-4.142 0-7.5 3.358-7.5 7.5s3.358 7.5 7.5 7.5h93.057c4.142 0 7.5-3.358 7.5-7.5s-3.358-7.5-7.5-7.5z"/></g></svg>