<?xml version="1.0" encoding="iso-8859-1"?>
<!-- Generator: Adobe Illustrator 19.0.0, SVG Export Plug-In . SVG Version: 6.00 Build 0)  -->
<svg version="1.1" id="Capa_1" xmlns="http://www.w3.org/2000/svg" xmlns:xlink="http://www.w3.org/1999/xlink" x="0px" y="0px"
	 viewBox="0 0 512 512" style="enable-background:new 0 0 512 512;" xml:space="preserve">
<g>
	<path style="fill:#FFD15C;" d="M427.733,352c19.2-19.2,20.267-32,20.267-32c-1.067-19.2-17.067-4.267-17.067-4.267
		c-23.467,24.533-70.4,34.133-70.4,34.133c-74.667,14.933-61.867,84.267-61.867,84.267c1.067,11.733,1.067,21.333,1.067,28.8
		L359.467,512c4.267-64,30.933-78.933,30.933-78.933c50.133-19.2,68.267-48,68.267-48c50.133-75.733,26.667-160,26.667-160
		c-16-21.333-21.333,19.2-21.333,19.2c-17.067-27.733-23.467,26.667-23.467,26.667c-14.933-25.6-25.6,44.8-25.6,44.8
		C441.6,290.133,451.2,300.8,451.2,300.8c21.333,18.133-8.533,51.2-8.533,51.2c-30.933,37.333-57.6,36.267-57.6,36.267
		c-10.667,0,0-7.467,10.667-12.8C406.4,370.133,418.133,361.6,427.733,352z"/>
	<path style="fill:#FFD15C;" d="M84.267,352C66.133,332.8,64,320,64,320c1.067-19.2,17.067-4.267,17.067-4.267
		c23.467,24.533,70.4,34.133,70.4,34.133c74.667,14.933,61.867,84.267,61.867,84.267c-1.067,11.733-1.067,21.333-1.067,28.8
		L153.6,512c-4.267-64-30.933-78.933-30.933-78.933c-50.133-19.2-69.333-48-69.333-48c-50.133-75.733-26.667-160-26.667-160
		c16-21.333,21.333,19.2,21.333,19.2c17.067-27.733,23.467,26.667,23.467,26.667c14.933-25.6,25.6,44.8,25.6,44.8
		C70.4,290.133,60.8,300.8,60.8,300.8c-21.333,18.133,8.533,51.2,8.533,51.2c30.933,37.333,57.6,36.267,57.6,36.267
		c10.667,0,0-7.467-10.667-12.8C105.6,370.133,93.867,361.6,84.267,352z"/>
</g>
<path style="fill:#FF7058;" d="M376.533,209.067C376.533,275.2,323.2,329.6,256,329.6c-66.133,0-120.533-53.333-120.533-120.533
	C135.467,142.933,256,0,256,0S376.533,142.933,376.533,209.067z"/>
<path style="fill:#F1543F;" d="M251.733,306.133c-52.267,0-96-42.667-96-96c0-4.267,3.2-6.4,6.4-6.4c4.267,0,6.4,3.2,6.4,6.4
	c0,44.8,36.267,82.133,82.133,82.133c4.267,0,6.4,3.2,6.4,6.4C258.133,302.933,256,306.133,251.733,306.133z"/>
<g>
</g>
<g>
</g>
<g>
</g>
<g>
</g>
<g>
</g>
<g>
</g>
<g>
</g>
<g>
</g>
<g>
</g>
<g>
</g>
<g>
</g>
<g>
</g>
<g>
</g>
<g>
</g>
<g>
</g>
</svg>
