<svg height="512pt" viewBox="-72 0 512 512" width="512pt" xmlns="http://www.w3.org/2000/svg"><path d="m160.265625 17.785156c0-9.820312-7.96875-17.785156-17.800781-17.785156h-67.253906c-9.832032 0-17.800782 7.964844-17.800782 17.785156 0 9.824219-7.972656 17.789063-17.804687 17.789063h-21.792969c-9.832031 0-17.8046875 7.960937-17.8046875 17.785156v158.007813h217.6601565v-158.007813c0-9.824219-7.972657-17.785156-17.804688-17.785156h-21.792969c-9.832031 0-17.804687-7.964844-17.804687-17.789063zm0 0" fill="#e4f4ff"/><path d="m217.667969 72.492188v123.488281c0 60.058593-217.667969 7.9375-217.667969 7.9375l1.015625-7.9375-1.015625-7.9375v-14.105469l1.015625-6.707031-1.015625-9.164063v-14.097656l1.015625-7.9375-1.015625-7.933594v-14.117187l1.015625-6.539063-1.015625-9.335937v-25.613281zm0 0" fill="#bddff4"/><path d="m217.667969 72.492188h-56.359375v138.875h42.90625c7.429687 0 13.453125-6.023438 13.453125-13.457032zm0 0" fill="#98c9e2"/><path d="m217.667969 195.980469v108.683593c0 15.605469-3.289063 30.453126-9.214844 43.871094-.019531.039063-.039063.089844-.058594.140625-16.898437 38.152344-55.097656 64.769531-99.507812 64.769531h-.09375c-10.230469 0-20.125-1.410156-29.511719-4.058593-29.511719-8.292969-53.941406-28.71875-67.550781-55.574219-1.238281-2.433594-1.367188-4.910156-2.425781-7.449219-1.09375-2.628906-3.09375-5.296875-3.976563-8.027343-1.53125-4.699219-2.75-9.539063-3.632813-14.503907-.496093-2.769531.132813-5.570312-.140624-8.402343-.246094-2.464844-1.414063-4.953126-1.4843755-7.46875-.0390625-1.097657-.0585937-2.191407-.0585937-3.296876v-10.820312l1.0117192-7.4375-1.0117192-8.425781v-14.105469l1.0117192-7.15625-1.0117192-8.714844v-14.109375l1.0117192-7.933593-1.0117192-7.9375v-14.105469l1.0117192-7.9375zm0 0" fill="#fc6d5e"/><path d="m315.746094 121.605469c-28.828125 0-52.28125 23.429687-52.28125 52.230469v249.011718c0 40.40625-32.902344 73.28125-73.34375 73.28125s-73.339844-32.875-73.339844-73.28125v-9.691406c41.003906-2.941406 75.726562-28.613281 91.613281-64.480469.019531-.050781.039063-.101562.058594-.140625 5.867187-14.207031 9.175781-29.269531 9.214844-44.199218v-108.355469h-56.355469v108.0625c0 50.0625-35.9375 92.699219-82.03125 105.34375 6.949219 1.960937 14.179688 3.238281 21.613281 3.773437v9.691406c0 49.15625 40.027344 89.148438 89.226563 89.148438 49.203125 0 89.230468-39.992188 89.230468-89.148438v-249.011718c0-20.050782 16.324219-36.363282 36.394532-36.363282 20.066406 0 36.394531 16.3125 36.394531 36.363282v330.226562c0 4.382813 3.554687 7.933594 7.941406 7.933594s7.941407-3.550781 7.941407-7.933594v-330.226562c.003906-28.800782-23.449219-52.234375-52.277344-52.234375zm0 0" fill="#e54e42"/><g fill="#fff"><path d="m129.664062 39.480469h-43.332031c-4.386719 0-7.941406-3.550781-7.941406-7.933594s3.554687-7.9375 7.941406-7.9375h43.332031c4.386719 0 7.941407 3.554687 7.941407 7.9375s-3.554688 7.933594-7.941407 7.933594zm0 0"/><path d="m57.175781 98.105469h-57.175781v15.875h57.175781c4.386719 0 7.9375-3.542969 7.9375-7.9375 0-4.382813-3.550781-7.9375-7.9375-7.9375zm-29.113281 119.917969h-28.0507812v15.871093h28.0507812c4.394531 0 7.945312-3.550781 7.945312-7.933593 0-4.386719-3.550781-7.9375-7.945312-7.9375zm0-59.957032h-28.0625v15.871094h28.0625c4.394531 0 7.945312-3.550781 7.945312-7.9375 0-4.371094-3.550781-7.933594-7.945312-7.933594zm0-29.96875h-28.0625v15.871094h28.0625c4.394531 0 7.945312-3.5625 7.945312-7.9375 0-4.394531-3.550781-7.933594-7.945312-7.933594zm11.203125 59.945313h-39.265625v15.875h39.265625c4.382813 0 7.945313-3.554688 7.945313-7.9375 0-4.382813-3.5625-7.9375-7.945313-7.9375zm-11.203125 59.960937h-28.0507812v15.871094h28.0507812c4.394531 0 7.945312-3.550781 7.945312-7.9375 0-4.382812-3.550781-7.933594-7.945312-7.933594zm29.113281 29.976563h-57.1640622v15.863281h57.1640622c4.386719 0 7.9375-3.542969 7.9375-7.925781 0-4.382813-3.550781-7.9375-7.9375-7.9375zm-29.113281 29.980469h-27.9921875c.1523435 5.398437.6992185 10.695312 1.6249995 15.871093h26.367188c4.394531 0 7.945312-3.550781 7.945312-7.933593 0-4.394532-3.550781-7.9375-7.945312-7.9375zm0 29.980468h-20.277344c-.792968 0-1.554687.121094-2.265625.34375-.070312.011719-.128906.03125-.191406.050782 1.734375 5.359374 3.875 10.523437 6.402344 15.476562h16.332031c4.394531 0 7.945312-3.5625 7.945312-7.9375 0-4.382812-3.550781-7.933594-7.945312-7.933594zm0 0"/></g></svg>