<svg id="Layer_1" enable-background="new 0 0 511.917 511.917" height="512" viewBox="0 0 511.917 511.917" width="512" xmlns="http://www.w3.org/2000/svg"><g><path d="m309.781 35.762c-21.773 0-41.202 10.174-53.822 26.005-12.62-15.831-32.05-26.005-53.822-26.005h-202.137v341.567h202.136c21.407 0 38.822 17.416 38.822 38.822h30c0-21.407 17.416-38.822 38.822-38.822h202.136v-341.567z" fill="#fff5f5"/><path d="m309.781 35.762c-21.773 0-41.202 10.174-53.822 26.005v354.384h15c0-21.407 17.416-38.822 38.822-38.822h202.136v-341.567z" fill="#eceae7"/><path d="m302.418 85.647h148.039v161.674h-148.039z" fill="#e7dfdd"/><path d="m56.459 205.655h158.04v101.67h-158.04z" fill="#e7dfdd"/><g><path d="m56.459 85.647h158.04v30h-158.04z" fill="#5e6b75"/></g><g><path d="m56.459 145.651h158.04v30h-158.04z" fill="#5e6b75"/></g><g><path d="m302.417 277.325h148.041v30h-148.041z" fill="#d5d5d5"/></g><path d="m309.781 357.33c-21.773 0-41.202 10.174-53.822 26.005-12.62-15.831-32.05-26.005-53.822-26.005h-202.137v65.002h202.136c21.407 0 38.822 17.416 38.822 38.823h30c0-21.407 17.416-38.823 38.822-38.823h202.136v-65.002z" fill="#eceae7"/><path d="m309.781 357.33c-21.773 0-41.202 10.174-53.822 26.005v77.819h15c0-21.407 17.416-38.823 38.822-38.823h202.136v-65.001z" fill="#e7dfdd"/><g><path d="m270.958 476.155h-30c0-21.407-17.416-38.822-38.822-38.822h-202.136v-30h202.136c21.766 0 41.202 10.154 53.822 25.976 12.621-15.822 32.057-25.976 53.822-25.976h202.136v30h-202.135c-21.407 0-38.823 17.416-38.823 38.822z" fill="#8ee26b"/></g><path d="m309.781 407.333c-21.766 0-41.202 10.154-53.822 25.976v42.846h15c0-21.407 17.416-38.822 38.822-38.822h202.136v-30z" fill="#00cb75"/><path d="m302.418 85.647h148.039v161.674h-148.039z" fill="#d5d5d5"/><g><path d="m302.417 277.325h148.041v30h-148.041z" fill="#4c5757"/></g></g></svg>